<svg width="171" height="74" viewBox="0 0 171 74" fill="none" xmlns="http://www.w3.org/2000/svg">
<g opacity="0.8" filter="url(#filter0_f_43_3999)">
<rect x="20.9121" y="27.907" width="129.231" height="25.5814" rx="4" fill="#FF0000" fill-opacity="0.79"/>
</g>
<rect x="13.5" y="0.5" width="143.527" height="49" rx="3.5" fill="#3402FE"/>
<rect x="13.5" y="0.5" width="143.527" height="49" rx="3.5" fill="url(#paint0_radial_43_3999)"/>
<rect x="13.5" y="0.5" width="143.527" height="49" rx="3.5" stroke="url(#paint1_linear_43_3999)"/>
<path d="M67.4012 30.128H67.8972C72.0092 30.128 73.8492 28.88 73.8492 26.528V26.368C73.8492 24.432 72.5052 23.44 70.1052 23.104L67.0652 22.704C66.0412 22.56 65.7052 22.256 65.7052 21.792V21.696C65.7052 21.152 66.2012 20.784 67.3532 20.784H67.8172C68.9532 20.784 69.4492 21.2 69.4492 22V22.08H73.7052V22C73.7052 19.488 71.3852 18.512 67.7532 18.512H67.3052C63.5932 18.512 61.5292 19.68 61.5292 22.016V22.176C61.5292 24.224 62.9692 25.2 65.2252 25.504L68.2012 25.872C69.2732 26.016 69.6092 26.304 69.6092 26.816V26.912C69.6092 27.488 69.0492 27.856 67.8812 27.856H67.3852C66.0732 27.856 65.5772 27.36 65.5772 26.512V26.432H61.2572V26.512C61.2572 28.528 62.6652 30.128 67.4012 30.128ZM77.786 30.096H78.058C79.626 30.096 80.714 29.744 81.722 28.56C82.01 29.744 82.57 30 84.01 30H86.314V27.872H85.578C85.242 27.872 85.13 27.76 85.13 27.44V24.432C85.13 22.528 83.882 21.744 80.202 21.744H79.866C76.282 21.744 74.922 22.512 74.922 24.192V24.272H78.602V24.192C78.602 23.792 78.954 23.584 79.802 23.584H80.154C81.002 23.584 81.354 23.776 81.354 24.208V24.288C81.354 24.576 81.21 24.704 80.714 24.736L78.01 24.96C75.578 25.152 74.57 25.984 74.57 27.568V27.648C74.57 29.28 75.642 30.096 77.786 30.096ZM78.426 27.392V27.312C78.426 26.896 78.746 26.592 79.514 26.528L80.602 26.416C81.002 26.384 81.194 26.32 81.306 26.224V26.592C81.306 27.424 80.714 28.064 79.578 28.064H79.402C78.826 28.064 78.426 27.824 78.426 27.392ZM89.2693 30H94.1653L97.7173 21.84H93.5893L91.7973 27.088L89.9573 21.84H85.7333L89.2693 30ZM103.154 30.096H103.41C107.266 30.096 108.53 28.848 108.53 27.408V27.328H104.786V27.408C104.786 27.76 104.402 28.048 103.41 28.048H103.154C102.162 28.048 101.57 27.648 101.506 26.704H108.578C108.626 26.368 108.626 26.112 108.626 25.696C108.626 23.088 107.25 21.744 103.346 21.744H103.09C99.314 21.744 97.634 23.024 97.634 25.84V26C97.634 28.816 99.33 30.096 103.154 30.096ZM101.522 24.96C101.602 24.048 102.21 23.664 103.09 23.664H103.33C104.242 23.664 104.754 24.048 104.818 24.96H101.522Z" fill="white"/>
<defs>
<filter id="filter0_f_43_3999" x="0.912109" y="7.90698" width="169.231" height="65.5814" filterUnits="userSpaceOnUse" color-interpolation-filters="sRGB">
<feFlood flood-opacity="0" result="BackgroundImageFix"/>
<feBlend mode="normal" in="SourceGraphic" in2="BackgroundImageFix" result="shape"/>
<feGaussianBlur stdDeviation="10" result="effect1_foregroundBlur_43_3999"/>
</filter>
<radialGradient id="paint0_radial_43_3999" cx="0" cy="0" r="1" gradientUnits="userSpaceOnUse" gradientTransform="translate(85.2637 -13.3721) rotate(90) scale(87.7907 111.202)">
<stop stop-color="#FF0300"/>
<stop offset="1" stop-color="#FF1D9F" stop-opacity="0"/>
</radialGradient>
<linearGradient id="paint1_linear_43_3999" x1="68.3846" y1="-18.6046" x2="101.97" y2="71.7551" gradientUnits="userSpaceOnUse">
<stop stop-color="white" stop-opacity="0.4"/>
<stop offset="1" stop-color="white" stop-opacity="0"/>
</linearGradient>
</defs>
</svg>
